<svg width="133" height="29" xmlns="http://www.w3.org/2000/svg" xmlns:xlink="http://www.w3.org/1999/xlink" xmlns:svgjs="http://svgjs.com/svgjs" viewBox="0 0.169 133 28.661" fill="#6d006f"><svg xmlns="http://www.w3.org/2000/svg" width="133" height="29" viewBox="0 0 132.16 28.48"><path paint-order="stroke fill markers" fill-rule="evenodd" d="M25.48 21.56c1.147-2.16 1.72-4.6 1.72-7.32 0-2.72-.573-5.16-1.72-7.32s-2.753-3.853-4.82-5.08C18.593.613 16.24 0 13.6 0c-2.64 0-4.993.613-7.06 1.84-2.067 1.227-3.673 2.92-4.82 5.08C.573 9.08 0 11.52 0 14.24c0 2.72.573 5.16 1.72 7.32s2.753 3.853 4.82 5.08c2.067 1.227 4.42 1.84 7.06 1.84 2.64 0 4.993-.613 7.06-1.84 2.067-1.227 3.673-2.92 4.82-5.08zM5.84 19.5c-.747-1.56-1.12-3.313-1.12-5.26 0-1.947.373-3.7 1.12-5.26.747-1.56 1.793-2.773 3.14-3.64 1.347-.867 2.887-1.3 4.62-1.3s3.273.433 4.62 1.3 2.393 2.08 3.14 3.64c.747 1.56 1.12 3.313 1.12 5.26 0 1.947-.373 3.7-1.12 5.26-.747 1.56-1.793 2.773-3.14 3.64-1.347.867-2.887 1.3-4.62 1.3s-3.273-.433-4.62-1.3-2.393-2.08-3.14-3.64zM30.16.24l4.76 5.56h3.32L35.16.24h-5zm17.38 9.52c-1.533-1.493-3.513-2.24-5.94-2.24-2.827 0-5.013.973-6.56 2.92l-.48-2.68H30.8v20.48h4.32V17.92c0-2.08.487-3.713 1.46-4.9.973-1.187 2.313-1.78 4.02-1.78 1.6 0 2.813.507 3.64 1.52s1.24 2.493 1.24 4.44v11.04h4.36V16.96c0-3.307-.767-5.707-2.3-7.2zM73.64.24h-4.32V10.6c-.693-.96-1.6-1.713-2.72-2.26-1.12-.547-2.427-.82-3.92-.82-1.84 0-3.493.433-4.96 1.3s-2.62 2.093-3.46 3.68C53.42 14.087 53 15.92 53 18c0 2.133.413 3.993 1.24 5.58.827 1.587 1.973 2.8 3.44 3.64 1.467.84 3.133 1.26 5 1.26 2.827 0 5.053-1.107 6.68-3.32l.52 3.08h3.76v-28zm-5.92 22.72c-1.093 1.253-2.533 1.88-4.32 1.88-1.787 0-3.227-.633-4.32-1.9-1.093-1.267-1.64-2.913-1.64-4.94 0-2 .547-3.633 1.64-4.9 1.093-1.267 2.533-1.9 4.32-1.9 1.787 0 3.227.633 4.32 1.9 1.093 1.267 1.64 2.927 1.64 4.98 0 2-.547 3.627-1.64 4.88zM89.2 7.76h-.96c-1.573 0-2.827.273-3.76.82a6.49 6.49 0 0 0-2.28 2.26l-.48-3.08h-3.84v20.48h4.32V17.96c0-1.787.4-3.26 1.2-4.42.8-1.16 2.093-1.74 3.88-1.74h1.92V7.76zm2.3 4.74c-.84 1.587-1.26 3.433-1.26 5.54 0 2.08.433 3.907 1.3 5.48a9.09 9.09 0 0 0 3.68 3.66c1.587.867 3.447 1.3 5.58 1.3 2.453 0 4.5-.667 6.14-2 1.64-1.333 2.647-3.04 3.02-5.12h-4.32c-.293 1.147-.893 2.033-1.8 2.66-.907.627-2.027.94-3.36.94-1.68 0-3.027-.52-4.04-1.56s-1.573-2.453-1.68-4.24v-.24h15.44c.08-.56.12-1.107.12-1.64-.027-1.973-.473-3.693-1.34-5.16a8.915 8.915 0 0 0-3.56-3.4c-1.507-.8-3.247-1.2-5.22-1.2-1.947 0-3.673.433-5.18 1.3-1.507.867-2.68 2.093-3.52 3.68zm14.42 3.26h-11c.16-1.44.753-2.593 1.78-3.46 1.027-.867 2.247-1.3 3.66-1.3 1.52 0 2.78.42 3.78 1.26 1 .84 1.593 2.007 1.78 3.5zm26.24-8h-4.32v10.16c0 2.107-.467 3.767-1.4 4.98-.933 1.213-2.227 1.82-3.88 1.82-1.573 0-2.76-.52-3.56-1.56-.8-1.04-1.2-2.56-1.2-4.56V7.76h-4.32v11.28c0 3.307.747 5.707 2.24 7.2 1.493 1.493 3.44 2.24 5.84 2.24 2.667 0 4.773-.947 6.32-2.84l.48 2.6h3.8V7.76z"/></svg></svg>